# xmcd
#
# Track frame offsets:
#	150
#	12221
#	24292
#	41127
#	51934
#	62741
#	77806
#	85292
#	92778
#	103194
#	120892
#	138590
#	163303
#	171711
#	180119
#	191826
#	202415
#	213004
#	226884
#	239241
#	251598
#
# Disc length: 3582 seconds
#
# Revision: 1
# Processed by: cddbd v1.5.2PL0 Copyright (c) Steve Scherf et al.
# Submitted via: audiograbber 1.83.01
#
DISCID=2d0dfc15
DTITLE=Händel - Messiah - Carus Choir Coach (Basso 1)
DYEAR=2009
DGENRE=Classical
TTITLE0=And the glory of the Lord
TTITLE1=And the glory of the Lord - Coach
TTITLE2=And the glory of the Lord - Coach in slow mode
TTITLE3=And He shall purify
TTITLE4=And He shall purify - Coach
TTITLE5=And He shall purify - Coach in slow mode
TTITLE6=O thoug
TTITLE7=O thoug - Coach 
TTITLE8=O thoug - Coach in slow mode
TTITLE9=For unto us a child is born
TTITLE10=For unto us a child is born - Coach
TTITLE11=For unto us a child is born - Coach in slow mode
TTITLE12=Glory to God
TTITLE13=Glory to God - Coach
TTITLE14=Glory to God - Coach in slow mode
TTITLE15=His yoke is easy
TTITLE16=His yoke is easy - Coach
TTITLE17=His yoke is easy - Coach in slow mode
TTITLE18=Behold the Lamb of God
TTITLE19=Behold the Lamb of God - Coach
TTITLE20=Behold the Lamb of God - Coach in slow mode
EXTD=
EXTT0=
EXTT1=
EXTT2=
EXTT3=
EXTT4=
EXTT5=
EXTT6=
EXTT7=
EXTT8=
EXTT9=
EXTT10=
EXTT11=
EXTT12=
EXTT13=
EXTT14=
EXTT15=
EXTT16=
EXTT17=
EXTT18=
EXTT19=
EXTT20=
PLAYORDER=
